<svg version="1.1" id="Layer_1" xmlns="http://www.w3.org/2000/svg" xmlns:xlink="http://www.w3.org/1999/xlink" x="0px" y="0px"
	 width="100%" viewBox="0 0 676 371" enable-background="new 0 0 676 371" xml:space="preserve">
<path fill="#010101" opacity="0" stroke="none" 
	d="
M445.000000,372.000000 
	C296.701935,372.000000 148.903885,372.000000 1.052909,372.000000 
	C1.052909,248.398132 1.052909,124.796234 1.052909,1.097169 
	C226.214752,1.097169 451.429535,1.097169 676.822144,1.097169 
	C676.822144,124.666458 676.822144,248.333206 676.822144,372.000000 
	C599.796204,372.000000 522.648071,372.000000 445.000000,372.000000 
M291.000000,323.000000 
	C291.000000,323.000000 290.995148,322.994141 291.700928,323.030487 
	C298.700012,315.288818 305.699097,307.547119 313.188232,299.488617 
	C313.436096,298.960815 313.683929,298.433014 314.621368,297.892303 
	C316.204041,295.495972 317.786743,293.099670 319.618988,290.171234 
	C319.777435,289.818054 319.935883,289.464905 320.782288,289.105499 
	C321.630890,287.633179 322.479492,286.160889 323.573395,284.134552 
	C323.722931,283.765656 323.872437,283.396759 324.722504,283.017426 
	C326.982849,278.596588 329.243195,274.175781 331.690430,269.159607 
	C331.832153,268.778778 331.973846,268.397980 332.657379,268.076324 
	C332.873199,267.383118 333.089020,266.689880 333.576874,265.529755 
	C333.602814,265.171539 333.628754,264.813324 334.273560,264.273560 
	C334.613373,263.414062 334.953186,262.554535 335.513794,261.142029 
	C335.588043,260.752136 335.662323,260.362274 336.390686,259.738525 
	C336.714752,258.732147 337.038818,257.725739 337.538605,256.146271 
	C337.621155,255.755569 337.703705,255.364853 338.474915,254.800400 
	C340.075409,249.765350 341.675903,244.730301 343.424072,239.125763 
	C343.466492,238.735825 343.508911,238.345871 344.131470,237.491165 
	C344.545959,235.571533 344.960449,233.651917 345.503113,231.149414 
	C345.521240,230.751923 345.539368,230.354431 346.140137,229.476105 
	C346.533539,227.224701 346.926941,224.973297 347.447174,222.184647 
	C347.506561,221.269241 347.565948,220.353836 348.217926,219.048996 
	C348.589386,215.943314 348.960846,212.837646 349.478668,208.949020 
	C349.532379,207.621765 349.586090,206.294510 350.163574,204.401764 
	C352.207703,191.585236 352.764923,178.788544 349.656097,165.277161 
	C349.575012,164.263321 349.493927,163.249481 349.730560,161.397079 
	C349.040405,158.278687 348.350281,155.160294 347.650299,151.337967 
	C347.558380,150.640671 347.466492,149.943390 347.683807,148.523529 
	C346.997131,146.533371 346.310455,144.543213 345.658722,141.910889 
	C345.552856,141.277878 345.447021,140.644882 345.714935,139.475464 
	C345.002899,137.667038 344.290863,135.858627 343.533142,133.449890 
	C343.448425,133.059280 343.363678,132.668686 343.566589,131.641312 
	C342.880493,130.291977 342.194397,128.942642 341.532806,127.047363 
	C341.446289,126.699783 341.359772,126.352203 341.599548,125.541595 
	C340.915771,124.220695 340.231995,122.899796 339.512787,121.034538 
	C339.403625,120.690506 339.294495,120.346474 339.551208,119.589737 
	C338.943329,118.738083 338.335480,117.886429 337.638977,116.435982 
	C337.526123,116.049995 337.413239,115.664001 337.561493,114.578835 
	C336.922668,112.933578 336.451263,111.197083 335.613617,109.660187 
	C333.112366,105.070915 330.467590,100.559891 327.651001,95.451759 
	C327.535980,95.064507 327.420959,94.677254 327.391541,93.612938 
	C325.389099,90.629639 323.386658,87.646339 321.273773,84.285400 
	C321.273773,84.285400 321.019836,83.984871 320.968353,83.274124 
	C319.311035,81.184402 317.653717,79.094681 315.600769,76.435356 
	C312.171570,72.051575 308.996735,67.437737 305.272827,63.320511 
	C276.199249,31.176226 241.052368,10.184607 197.124588,6.865453 
	C182.253082,5.741774 167.023056,5.906088 152.253815,7.798878 
	C135.419128,9.956370 119.324997,16.063242 104.350540,24.247053 
	C78.952652,38.127457 58.123104,57.157074 41.813660,81.161537 
	C23.616808,107.943924 13.201801,137.626495 10.715168,169.660004 
	C9.503239,185.272430 10.363302,201.332336 12.644626,216.842697 
	C14.633841,230.367081 19.432940,243.576004 23.894672,256.614929 
	C29.909672,274.193176 39.990585,289.551331 51.572346,304.027435 
	C65.644791,321.616577 82.772758,335.550629 102.622849,345.773285 
	C113.472137,351.360565 125.430260,354.794708 137.142456,359.809784 
	C139.093948,360.229462 141.045441,360.649170 143.712448,361.073242 
	C144.423813,361.147034 145.135193,361.220795 146.071152,361.947418 
	C148.710663,362.359436 151.350174,362.771484 154.790710,363.199097 
	C156.120331,363.298187 157.449936,363.397278 159.059097,364.160187 
	C160.409058,364.676208 161.754425,365.625702 163.109726,365.640137 
	C174.597656,365.762360 186.088745,365.798859 197.575027,365.617340 
	C199.133041,365.592712 200.669739,364.219330 203.012314,363.378418 
	C204.346329,363.307983 205.680328,363.237549 207.564407,363.655273 
	C209.771255,362.891296 211.978088,362.127350 214.944550,361.257690 
	C215.964615,361.186401 216.984680,361.115112 218.497238,361.447266 
	C220.362091,360.683990 222.226959,359.920746 224.723495,359.063141 
	C225.148682,359.041901 225.573868,359.020630 226.764420,359.236145 
	C228.514587,358.498322 230.264755,357.760498 232.774399,356.898590 
	C235.058914,356.133301 237.414505,355.531921 239.616730,354.576843 
	C257.369843,346.877533 274.325806,337.835449 289.559387,324.944550 
	C290.037628,324.294556 290.515900,323.644531 291.000000,323.000000 
M661.047852,355.452484 
	C658.423096,349.624176 655.702820,343.836700 653.190796,337.960205 
	C644.264771,317.078888 635.469788,296.141479 626.508606,275.275360 
	C619.484924,258.920746 612.250610,242.656708 605.178711,226.322586 
	C595.466248,203.889450 585.848389,181.415344 576.135315,158.982422 
	C565.903564,135.351227 555.555359,111.770348 545.353210,88.126419 
	C533.687683,61.090973 522.127075,34.010246 510.520844,6.949196 
	C510.001984,6.810432 509.483124,6.671668 508.964264,6.532904 
	C457.445038,125.746376 405.807709,244.908920 354.218719,365.235016 
	C369.096008,365.235016 382.236450,365.342834 395.369263,365.075470 
	C396.747986,365.047363 398.700531,363.069275 399.346252,361.552826 
	C418.016602,317.705414 436.609924,273.824921 455.096954,229.899796 
	C472.577332,188.366516 489.914215,146.772842 507.376373,105.231865 
	C507.875183,104.045250 509.078339,103.154724 510.189941,101.847603 
	C517.697144,119.677986 524.884399,136.754547 532.076538,153.829041 
	C539.086121,170.469864 546.107971,187.105499 553.111145,203.749008 
	C560.733948,221.865097 568.330933,239.992081 575.958801,258.106049 
	C583.012146,274.855652 590.136230,291.575653 597.147095,308.342957 
	C604.604187,326.177277 611.864807,344.095154 619.533264,361.837372 
	C620.246155,363.486694 623.254089,365.043030 625.237793,365.096008 
	C636.727539,365.402832 648.229797,365.263245 659.727661,365.225037 
	C661.293579,365.219818 662.858582,364.936462 664.775208,364.747223 
	C663.404663,361.566650 662.255615,358.900055 661.047852,355.452484 
z"/>
<path fill="#EBEBEB" opacity="1.000000" stroke="none" 
	d="
M343.551331,237.955933 
	C343.508911,238.345871 343.466492,238.735825 343.017151,239.502945 
	C341.002228,244.911469 339.394226,249.942795 337.786255,254.974136 
	C337.703705,255.364853 337.621155,255.755569 337.163879,256.484802 
	C336.438263,257.873016 336.087402,258.922699 335.736572,259.972382 
	C335.662323,260.362274 335.588043,260.752136 335.082123,261.478577 
	C334.318542,262.695129 333.986633,263.575104 333.654694,264.455109 
	C333.628754,264.813324 333.602814,265.171539 333.149872,265.771790 
	C332.520416,266.681610 332.317993,267.349365 332.115540,268.017151 
	C331.973846,268.397980 331.832153,268.778778 331.260284,269.525940 
	C328.560760,274.270813 326.291351,278.649323 324.021973,283.027863 
	C323.872437,283.396759 323.722931,283.765656 323.119446,284.433838 
	C321.808441,286.192657 320.951385,287.652191 320.094330,289.111725 
	C319.935883,289.464905 319.777435,289.818054 319.165222,290.468079 
	C317.118225,293.145020 315.524994,295.525085 313.931763,297.905182 
	C313.683929,298.433014 313.436096,298.960815 312.600189,299.636749 
	C309.033478,303.044525 306.041779,306.292389 303.079407,309.566772 
	C299.039612,314.031982 295.022186,318.517395 290.995148,322.994141 
	C290.995148,322.994141 291.000000,323.000000 290.653900,322.952393 
	C289.852844,323.574493 289.397858,324.244263 288.942871,324.914001 
	C274.325806,337.835449 257.369843,346.877533 239.616730,354.576843 
	C237.414505,355.531921 235.058914,356.133301 232.002380,356.879883 
	C229.486588,357.573883 227.742813,358.286621 225.999054,358.999359 
	C225.573868,359.020630 225.148682,359.041901 224.014557,359.016479 
	C221.538651,359.661163 219.771698,360.352509 218.004745,361.043823 
	C216.984680,361.115112 215.964615,361.186401 214.168579,361.193237 
	C211.266510,361.808228 209.140427,362.487671 207.014343,363.167145 
	C205.680328,363.237549 204.346329,363.307983 202.159744,363.276733 
	C188.273666,363.187561 175.240143,363.193115 162.206680,363.224854 
	C161.064087,363.227631 159.921921,363.401825 158.779556,363.496399 
	C157.449936,363.397278 156.120331,363.298187 154.159912,362.896179 
	C150.968262,362.160370 148.407410,361.727478 145.846558,361.294556 
	C145.135193,361.220795 144.423813,361.147034 143.095474,360.803864 
	C140.615112,360.089600 138.751724,359.644714 136.888336,359.199860 
	C125.430260,354.794708 113.472137,351.360565 102.622849,345.773285 
	C82.772758,335.550629 65.644791,321.616577 51.572346,304.027435 
	C39.990585,289.551331 29.909672,274.193176 23.894672,256.614929 
	C19.432940,243.576004 14.633841,230.367081 12.644626,216.842697 
	C10.363302,201.332336 9.503239,185.272430 10.715168,169.660004 
	C13.201801,137.626495 23.616808,107.943924 41.813660,81.161537 
	C58.123104,57.157074 78.952652,38.127457 104.350540,24.247053 
	C119.324997,16.063242 135.419128,9.956370 152.253815,7.798878 
	C167.023056,5.906088 182.253082,5.741774 197.124588,6.865453 
	C241.052368,10.184607 276.199249,31.176226 305.272827,63.320511 
	C308.996735,67.437737 312.171570,72.051575 315.804504,77.075790 
	C317.678802,79.805779 319.349335,81.895325 321.019836,83.984863 
	C321.019836,83.984871 321.273773,84.285400 321.183350,84.829041 
	C323.163940,88.345123 325.234924,91.317566 327.305939,94.290001 
	C327.420959,94.677254 327.535980,95.064507 327.556152,95.944031 
	C329.690521,101.000877 331.872742,105.589333 334.172363,110.118179 
	C335.080414,111.906479 336.249908,113.562027 337.300354,115.278023 
	C337.413239,115.664001 337.526123,116.049995 337.471191,116.955284 
	C337.930756,118.317200 338.558075,119.159813 339.185364,120.002426 
	C339.294495,120.346474 339.403625,120.690506 339.372589,121.681824 
	C339.912689,123.554276 340.592957,124.779449 341.273254,126.004623 
	C341.359772,126.352203 341.446289,126.699783 341.392609,127.673058 
	C341.927917,129.625198 342.603455,130.951630 343.278961,132.278076 
	C343.363678,132.668686 343.448425,133.059280 343.355896,134.030579 
	C343.899506,136.411484 344.620331,138.211685 345.341187,140.011887 
	C345.447021,140.644882 345.552856,141.277878 345.471680,142.592682 
	C345.981293,145.265030 346.677948,147.255554 347.374573,149.246094 
	C347.466492,149.943390 347.558380,150.640671 347.429932,151.982269 
	C347.944000,155.829590 348.678406,159.032623 349.412842,162.235641 
	C349.493927,163.249481 349.575012,164.263321 349.424133,165.995895 
	C349.241119,173.196457 349.269379,179.678543 349.344879,186.160065 
	C349.417938,192.429413 349.539551,198.698212 349.639832,204.967255 
	C349.586090,206.294510 349.532379,207.621765 349.123718,209.546692 
	C348.387634,213.242386 348.006500,216.340408 347.625336,219.438431 
	C347.565948,220.353836 347.506561,221.269241 347.089844,222.600052 
	C346.340851,225.329285 345.949158,227.643112 345.557495,229.956940 
	C345.539368,230.354431 345.521240,230.751923 345.139893,231.562836 
	C344.368225,233.969467 343.959778,235.962708 343.551331,237.955933 
M305.517426,220.719681 
	C306.754852,213.688141 308.587921,206.702057 309.128876,199.617340 
	C311.778229,164.918320 305.033813,132.427414 285.729523,102.959190 
	C266.089569,72.978592 238.488342,54.791714 203.558853,47.969879 
	C183.381378,44.029160 163.349518,45.471680 143.495514,51.497326 
	C126.482498,56.660736 111.365883,64.846764 98.083900,76.475883 
	C71.633629,99.634583 56.881878,129.369934 52.504650,163.705139 
	C49.722668,185.527145 50.623600,207.576965 57.552471,229.089661 
	C64.312683,250.078751 74.702103,268.695435 89.917259,284.590485 
	C114.906456,310.696381 145.638123,324.246979 181.663437,324.418213 
	C192.440033,324.469421 203.276718,321.305420 214.007233,319.211548 
	C227.039520,316.668518 238.582611,310.334869 249.318558,302.977783 
	C278.345917,283.085968 296.463409,255.418579 305.517426,220.719681 
z"/>
<path fill="#EAEAEA" opacity="1.000000" stroke="none" 
	d="
M661.077148,355.842957 
	C662.255615,358.900055 663.404663,361.566650 664.775208,364.747223 
	C662.858582,364.936462 661.293579,365.219818 659.727661,365.225037 
	C648.229797,365.263245 636.727539,365.402832 625.237793,365.096008 
	C623.254089,365.043030 620.246155,363.486694 619.533264,361.837372 
	C611.864807,344.095154 604.604187,326.177277 597.147095,308.342957 
	C590.136230,291.575653 583.012146,274.855652 575.958801,258.106049 
	C568.330933,239.992081 560.733948,221.865097 553.111145,203.749008 
	C546.107971,187.105499 539.086121,170.469864 532.076538,153.829041 
	C524.884399,136.754547 517.697144,119.677986 510.189941,101.847603 
	C509.078339,103.154724 507.875183,104.045250 507.376373,105.231865 
	C489.914215,146.772842 472.577332,188.366516 455.096954,229.899796 
	C436.609924,273.824921 418.016602,317.705414 399.346252,361.552826 
	C398.700531,363.069275 396.747986,365.047363 395.369263,365.075470 
	C382.236450,365.342834 369.096008,365.235016 354.218719,365.235016 
	C405.807709,244.908920 457.445038,125.746376 508.964264,6.532904 
	C509.483124,6.671668 510.001984,6.810432 510.520844,6.949196 
	C522.127075,34.010246 533.687683,61.090973 545.353210,88.126419 
	C555.555359,111.770348 565.903564,135.351227 576.135315,158.982422 
	C585.848389,181.415344 595.466248,203.889450 605.178711,226.322586 
	C612.250610,242.656708 619.484924,258.920746 626.508606,275.275360 
	C635.469788,296.141479 644.264771,317.078888 653.190796,337.960205 
	C655.702820,343.836700 658.423096,349.624176 661.077148,355.842957 
z"/>
<path fill="#5F5F5F" opacity="0" stroke="none" 
	d="
M158.919327,363.828308 
	C159.921921,363.401825 161.064087,363.227631 162.206680,363.224854 
	C175.240143,363.193115 188.273666,363.187561 201.761734,363.322754 
	C200.669739,364.219330 199.133041,365.592712 197.575027,365.617340 
	C186.088745,365.798859 174.597656,365.762360 163.109726,365.640137 
	C161.754425,365.625702 160.409058,364.676208 158.919327,363.828308 
z"/>
<path fill="#8F8F8F" opacity="0" stroke="none" 
	d="
M349.901733,204.684509 
	C349.539551,198.698212 349.417938,192.429413 349.344879,186.160065 
	C349.269379,179.678543 349.241119,173.196457 349.422028,166.377716 
	C352.764923,178.788544 352.207703,191.585236 349.901733,204.684509 
z"/>
<path fill="#8F8F8F" opacity="0" stroke="none" 
	d="
M291.348022,323.012329 
	C295.022186,318.517395 299.039612,314.031982 303.079407,309.566772 
	C306.041779,306.292389 309.033478,303.044525 312.355164,299.795166 
	C305.699097,307.547119 298.700012,315.288818 291.348022,323.012329 
z"/>
<path fill="#8F8F8F" opacity="0" stroke="none" 
	d="
M337.430908,114.928436 
	C336.249908,113.562027 335.080414,111.906479 334.172363,110.118179 
	C331.872742,105.589333 329.690521,101.000877 327.670044,96.227303 
	C330.467590,100.559891 333.112366,105.070915 335.613617,109.660187 
	C336.451263,111.197083 336.922668,112.933578 337.430908,114.928436 
z"/>
<path fill="#8F8F8F" opacity="0" stroke="none" 
	d="
M338.130585,254.887268 
	C339.394226,249.942795 341.002228,244.911469 342.943298,239.787689 
	C341.675903,244.730301 340.075409,249.765350 338.130585,254.887268 
z"/>
<path fill="#8F8F8F" opacity="0" stroke="none" 
	d="
M324.372223,283.022644 
	C326.291351,278.649323 328.560760,274.270813 331.166840,269.823639 
	C329.243195,274.175781 326.982849,278.596588 324.372223,283.022644 
z"/>
<path fill="#8F8F8F" opacity="0" stroke="none" 
	d="
M349.571686,161.816360 
	C348.678406,159.032623 347.944000,155.829590 347.434875,152.334229 
	C348.350281,155.160294 349.040405,158.278687 349.571686,161.816360 
z"/>
<path fill="#8F8F8F" opacity="0" stroke="none" 
	d="
M347.921631,219.243713 
	C348.006500,216.340408 348.387634,213.242386 349.050537,209.938171 
	C348.960846,212.837646 348.589386,215.943314 347.921631,219.243713 
z"/>
<path fill="#8F8F8F" opacity="0" stroke="none" 
	d="
M327.348755,93.951469 
	C325.234924,91.317566 323.163940,88.345123 321.238556,85.017868 
	C323.386658,87.646339 325.389099,90.629639 327.348755,93.951469 
z"/>
<path fill="#5F5F5F" opacity="0" stroke="none" 
	d="
M145.958862,361.621002 
	C148.407410,361.727478 150.968262,362.160370 153.759399,362.888397 
	C151.350174,362.771484 148.710663,362.359436 145.958862,361.621002 
z"/>
<path fill="#5F5F5F" opacity="0" stroke="none" 
	d="
M207.289368,363.411194 
	C209.140427,362.487671 211.266510,361.808228 213.788757,361.246094 
	C211.978088,362.127350 209.771255,362.891296 207.289368,363.411194 
z"/>
<path fill="#8F8F8F" opacity="0" stroke="none" 
	d="
M314.276550,297.898743 
	C315.524994,295.525085 317.118225,293.145020 319.040436,290.734131 
	C317.786743,293.099670 316.204041,295.495972 314.276550,297.898743 
z"/>
<path fill="#8F8F8F" opacity="0" stroke="none" 
	d="
M345.848816,229.716522 
	C345.949158,227.643112 346.340851,225.329285 347.026428,222.868683 
	C346.926941,224.973297 346.533539,227.224701 345.848816,229.716522 
z"/>
<path fill="#8F8F8F" opacity="0" stroke="none" 
	d="
M320.994080,83.629494 
	C319.349335,81.895325 317.678802,79.805779 316.002319,77.360596 
	C317.653717,79.094681 319.311035,81.184402 320.994080,83.629494 
z"/>
<path fill="#8F8F8F" opacity="0" stroke="none" 
	d="
M347.529175,148.884811 
	C346.677948,147.255554 345.981293,145.265030 345.454224,142.913788 
	C346.310455,144.543213 346.997131,146.533371 347.529175,148.884811 
z"/>
<path fill="#5F5F5F" opacity="0" stroke="none" 
	d="
M218.250992,361.245544 
	C219.771698,360.352509 221.538651,359.661163 223.698715,359.063660 
	C222.226959,359.920746 220.362091,360.683990 218.250992,361.245544 
z"/>
<path fill="#8F8F8F" opacity="0" stroke="none" 
	d="
M343.841400,237.723541 
	C343.959778,235.962708 344.368225,233.969467 345.075806,231.854279 
	C344.960449,233.651917 344.545959,235.571533 343.841400,237.723541 
z"/>
<path fill="#8F8F8F" opacity="0" stroke="none" 
	d="
M345.528076,139.743683 
	C344.620331,138.211685 343.899506,136.411484 343.378754,134.330750 
	C344.290863,135.858627 345.002899,137.667038 345.528076,139.743683 
z"/>
<path fill="#5F5F5F" opacity="0" stroke="none" 
	d="
M137.015396,359.504822 
	C138.751724,359.644714 140.615112,360.089600 142.737717,360.801666 
	C141.045441,360.649170 139.093948,360.229462 137.015396,359.504822 
z"/>
<path fill="#5F5F5F" opacity="0" stroke="none" 
	d="
M226.381744,359.117737 
	C227.742813,358.286621 229.486588,357.573883 231.622650,356.941925 
	C230.264755,357.760498 228.514587,358.498322 226.381744,359.117737 
z"/>
<path fill="#8F8F8F" opacity="0" stroke="none" 
	d="
M343.422791,131.959686 
	C342.603455,130.951630 341.927917,129.625198 341.380341,127.946030 
	C342.194397,128.942642 342.880493,130.291977 343.422791,131.959686 
z"/>
<path fill="#8F8F8F" opacity="0" stroke="none" 
	d="
M320.438293,289.108612 
	C320.951385,287.652191 321.808441,286.192657 322.996765,284.710846 
	C322.479492,286.160889 321.630890,287.633179 320.438293,289.108612 
z"/>
<path fill="#8F8F8F" opacity="0" stroke="none" 
	d="
M341.436401,125.773102 
	C340.592957,124.779449 339.912689,123.554276 339.390320,121.954010 
	C340.231995,122.899796 340.915771,124.220695 341.436401,125.773102 
z"/>
<path fill="#8F8F8F" opacity="0" stroke="none" 
	d="
M336.063599,259.855469 
	C336.087402,258.922699 336.438263,257.873016 337.075989,256.771362 
	C337.038818,257.725739 336.714752,258.732147 336.063599,259.855469 
z"/>
<path fill="#8F8F8F" opacity="0" stroke="none" 
	d="
M339.368286,119.796082 
	C338.558075,119.159813 337.930756,118.317200 337.515503,117.254684 
	C338.335480,117.886429 338.943329,118.738083 339.368286,119.796082 
z"/>
<path fill="#8F8F8F" opacity="0" stroke="none" 
	d="
M333.964111,264.364319 
	C333.986633,263.575104 334.318542,262.695129 334.971741,261.755066 
	C334.953186,262.554535 334.613373,263.414062 333.964111,264.364319 
z"/>
<path fill="#8F8F8F" opacity="0" stroke="none" 
	d="
M332.386475,268.046753 
	C332.317993,267.349365 332.520416,266.681610 333.013855,266.005249 
	C333.089020,266.689880 332.873199,267.383118 332.386475,268.046753 
z"/>
<path fill="#8F8F8F" opacity="0" stroke="none" 
	d="
M289.251129,324.929260 
	C289.397858,324.244263 289.852844,323.574493 290.650970,322.949646 
	C290.515900,323.644531 290.037628,324.294556 289.251129,324.929260 
z"/>
<path fill="#010101" opacity="0" stroke="none" 
	d="
M305.442810,221.130707 
	C296.463409,255.418579 278.345917,283.085968 249.318558,302.977783 
	C238.582611,310.334869 227.039520,316.668518 214.007233,319.211548 
	C203.276718,321.305420 192.440033,324.469421 181.663437,324.418213 
	C145.638123,324.246979 114.906456,310.696381 89.917259,284.590485 
	C74.702103,268.695435 64.312683,250.078751 57.552471,229.089661 
	C50.623600,207.576965 49.722668,185.527145 52.504650,163.705139 
	C56.881878,129.369934 71.633629,99.634583 98.083900,76.475883 
	C111.365883,64.846764 126.482498,56.660736 143.495514,51.497326 
	C163.349518,45.471680 183.381378,44.029160 203.558853,47.969879 
	C238.488342,54.791714 266.089569,72.978592 285.729523,102.959190 
	C305.033813,132.427414 311.778229,164.918320 309.128876,199.617340 
	C308.587921,206.702057 306.754852,213.688141 305.442810,221.130707 
z"/>
</svg>